<?xml version="1.0" encoding="UTF-8"?>
<svg width="1200pt" height="1200pt" version="1.1" viewBox="0 0 1200 1200" xmlns="http://www.w3.org/2000/svg">
 <path fill="#4e4e42" d="m1089.1 194.78c1.6016 3.4258 19.828 37.66 27.172 80.605 6.5195 38.148 2.625 83.961-1.9414 109.03-6.1484 34.027-53.422 128.17-63.895 145.05-17.641 28.301-31.527 54.379-49.875 81.887-6.6875 10.039-13.82 18.793-20.309 28.848-12.926 20.086-22.395 41.574-34.973 62.785-10.426 17.547-49.922 69.922-55.828 78.992-5.9219 9.3086-33.047 44.812-40.113 53.719-13.734 17.398-25.613 38.375-38.52 58.102-18.492 28.152-38.848 47.934-59.426 74.387-13.246 16.965-22.793 36.801-35.762 52.188-12.027 14.191-52.867 57.738-60.754 67.922-14.852 19.113-72.168 64.633-83.547 66.34-11.586 1.6797-19.266-8.8516-25.934-10.688-11.199-3.1016-45.078-59.312-48.621-64.625-8.1719-12.359-40.559-54.281-48.352-66.719-9.2617-14.785-24.707-26.82-32.809-39.621-7.0742-11.199-10.895-25.301-18.398-37.852-6.6133-11.078-54.395-66.055-69.266-84.008-20.867-25.148-37.922-58.84-57.926-90.934-18.762-29.926-45.535-56.367-62.828-85.215-10.02-16.652-17.508-38.48-26.426-57.707-17.707-38.074-32.941-77.332-50.512-117.23-9.0742-20.641-20.832-39.078-26.422-57.719-4.4922-15.047-6.8594-36-11.965-55.922-10.773-42.078-21.398-112.38 5.1055-160.67 7.1406-12.992 20.16-27.465 30.367-42.359 27.047-39.527 39.309-47.492 81.859-69.527 25.094-13.008 44.121-27.379 71.105-33.152 21.414-4.5664 44-3.332 67.566-4.2539 31.215-1.2188 61.914-5.7188 98.754-2.5078 38.875 3.3867 81.738 13.422 115.85 28.914 11.953 5.4219 21.605 15.719 31.5 16.441 10.988 0.82031 36.035-14.809 53.074-22.793 18.988-8.8984 37.566-20.508 51.238-25.105 10.18-3.4141 99.699-30.293 131.23-27.348 21.227 1.9883 46.273 0.44531 68.414 5.8008 22.035 5.3477 42.254 11.039 60.328 20.008 58.98 29.125 104.71 70.238 130.84 124.94zm-437.21 798.84c12.953-13.762 25.125-28.473 36.809-43.66 11.688-15.207 20.992-32.555 33.133-48.254 6.6133-8.5 15.207-14.547 21.68-22.461 6.8086-8.4414 11.707-18.074 17.961-27.133 24.914-36.539 52.039-70 75.605-103.82 6.0586-8.6797 12.172-17.82 17.973-27.133 6.1055-9.7539 10.074-21.281 16.453-31.508 10.328-16.473 25.012-30.668 35.301-48.012 22.035-37.328 44-72.734 65.535-107.13 11.105-17.738 24.102-36.578 31.867-54.734 3.6914-8.6602 24.188-52.68 29.219-67.602 12.027-35.613 9.8125-74.387 7.3281-110.12-1.3672-19.426-0.51953-38.719-4-52.867-9.6602-38.766-29.859-61.672-56.66-84.48-16.922-14.406-35.527-30.699-55.734-40.387-25.48-12.168-82.922-29.133-104.03-23.266-18.934 5.2812-39.238 12.426-61.027 19.715-30.434 10.191-61.254 17.605-85.367 29.312-7.2188 3.5195-18.715 5.0078-20.566 14.219 20.766 27.141 43.348 54.234 58.992 82.668 9.1406 16.785 24.152 34.215 15.547 60.559-7.0586 13.559-23.035 16.914-39.414 14.027-17.238-3.0664-25.492-22.828-38.555-44.539-30.273-50.668-62.434-88.328-117.54-117.11-26.102-13.648-58.801-22.328-97.262-26.648-22.707-2.5352-46.254 0.26172-69.113-0.11328-24.715-0.41406-46.465-0.27344-67.559 4.2461-40.035 8.6055-70.785 25.328-104.09 45.848-26.555 34.547-55.875 58.527-59.621 109.96-2.3594 32.453 7.168 65.828 15.16 98.234 18.465 75.027 55.672 144.01 83.188 209.25 5.9727 14.121 11.375 30.012 17.867 41.98 8.9141 16.461 24.32 30.82 36.199 46.395 36.574 47.762 61.066 107.07 101.11 148.59 23.422 20.141 77.312 100.86 88.191 117.64 7.6406 11.812 20.141 21.809 29.441 32.934 24.801 29.715 46.5 58.359 68.762 88.074 27.41-24.059 50.191-53.902 77.219-82.676zm271.88-626.38c-7.9922 2.8281-11.133 16.754-17.734 25.055-5.2852 6.6406-15.246 12.875-23.727 22.219-7.332 8.1914-13.688 18.285-22.078 26.602-7.3516 7.2344-17.785 12.906-25.535 19.914-10.121 9.1797-16.832 19.801-23.906 24.266-30.926 19.422-68.227 13.895-85.887-16.852-16.766-29.074-14.961-73.055-40.973-93.168-11.926-4.1133-82.34-41.945-93.086-9.2188-7.3086 22.254 39.988 30.84 52.648 48.422-24.234 3.0938-57.301-4.9805-74.234 7.6016-6.6992 47.281 59.492 22.125 92.66 30.254 14.641 41.488 33.422 71.078 77.48 84.965 56.133 17.633 100.09-5.9727 129.65-32.227 7.3594-6.5078 16.066-11.578 23.199-18.113 6.5469-6.0352 32.848-30.445 37.867-35.152 2.9414-2.7734 6.4883-9.6484 10.027-13.426 12.375-13.273 27.461-37.172 21.812-58.055-9.9883-10.473-25.789-17.426-38.184-13.086zm-634.18 114.68c40.273 40.273 109.89 32.102 144.43 1.0195 7.375-6.6406 14.547-19.766 24.707-30.473 10.074-10.668 24.422-18.941 23.133-34.867-0.51172-6.1719-8.9062-16.812-18.613-19.027-34.246-7.8945-49.168 43-78.793 61.508-10.766 6.7383-29.832 14.398-45.105 9.1133-16.105-5.5469-29.133-36.008-34.152-46.078-10.035-20.16-8.9883-39.922-24.312-59.574-8.5664-10.961-39.848-54.039-75.652-53.875-8.2734 0.046875-24.492 1.4219-25.293 7.9609-0.46484 20.254 20.035 24.133 24.312 40.688-9.4141 14.199-34.367 4.3086-37.309 26.832 1.5938 23.125 51.762 13.508 72.965 6.8672 19.793 30.684 23.047 63.285 49.68 89.906zm171.07 46.18c-5.7539 36.254-11.945 59.488-16.059 90.199-32.953 2.1602-63.688 23.621-70.539 62.578-5.1484 29.059 1.9648 65.066 15.359 79.387 25.648 16.5 52.781 34.152 88.746 27.68 8.0742-1.4453 15.414-7.5938 23.965-7.5273 8.4258 0.066406 18.781 5.7812 28.406 7.6406 18.688 3.7188 43.32 7.4141 56.461 0.6875 9.7148-4.9727 31.66-42.16 38.055-70.688 11.492-51.434-11.426-75.809-43.488-89.152 0.33984-23.246 7.9219-55.688 1.4414-75.273-5.4453-16.328-19.879-20.199-38.773-13.133-10.578 19.445-9.2812 50.641-13.773 77.867-3.9531 23.895-14.359 43.879-2.7188 56.227 13.191 8.5938 27.668 5.6016 43.332 5.3398 5.8398 24.973-6.0664 64.375-23.832 74.605-26.98-2.0742-52.672-14.246-75.867-13.512-9.0938 0.30078-14.738 7.7188-23.691 5.4258-24.906-7.7734-29.168-54.727-9.6875-74.492 17.434 8.5938 51.395 14.426 59.055-3.2148-2.7852-38.578 9.668-86.379 9.7812-130.75-6.1914-12.867-34-23.852-46.172-9.8984zm169.02 305.71c15.441 1.5469 31.367 0.83203 40.766 9.2344 6.3516 5.7383 4.6484 11.602 7.7188 21.887 2.6719 8.6211 7.0938 14.781 5.707 21.613-3.9258 19.688-141.49 72.605-185.93 42.086-7.6211-5.2461-27.84-31.352-29.84-41.406-1.6719-8.5195-11.094-25.012-10.434-34.781 35.309 8.8594 50.688-27.559 73.422-34.988 8.0547-2.6133 17.395 1.0469 25.273-1.0781 8.5117-2.2656 15.395-13.648 25-15.781 14.32-3.1875 21.379 2.1133 36.887 6.6797 4.4531 8.3086 8.5469 16.969 11.434 26.535zm-39.953 34.859c-12.074 25.668-54.848-1.8477-69.32 18.762 11.68 24.48 40.113 9.3086 58.027 5.0391 13.785-3.3477 28.785-2.8672 34.832-10.379-7.9453-4.4297-16.398-8.4219-23.539-13.422z"/>
</svg>
