<?xml version="1.0" encoding="UTF-8"?>
<svg width="1200pt" height="1200pt" version="1.1" viewBox="0 0 1200 1200" xmlns="http://www.w3.org/2000/svg">
 <path fill="#4e4e42" d="m1140 335.33c2.668 5.332 5.332 12 9.332 17.332 36 38.668 45.332 88 49.332 138.67 1.332 17.332 0 34.668 0 50.668-6.668 17.332-18.668 29.332-32 40-81.332 69.332-173.33 117.33-274.67 149.33-94.668 29.332-192 38.668-290.67 33.332-52-2.668-102.67-8-153.33-20-37.332-9.332-74.668-13.332-112-20-5.332-1.332-13.332 5.332-14.668 12 0 17.332-1.332 34.668-1.332 52 0 13.332-4 26.668-8 40-6.668 20-18.668 32-40 36-6.668 1.332-14.668 1.332-18.668-4-9.332-12-18.668-24-28-37.332-14.668-21.332-32-40-53.332-56-10.668-8-21.332-17.332-30.668-26.668-6.668-6.668-14.668-14.668-18.668-24-8-21.332-24-37.332-41.332-52-9.332-8-17.332-16-26.668-24-5.332-4-12-9.332-17.332-10.668-21.332-2.668-26.668-18.668-34.668-33.332-5.332-9.332 5.332-25.332 13.332-21.332 17.332 5.332 33.332 1.332 49.332-4 41.332-12 80-32 116-56 38.668-25.332 78.668-49.332 118.67-73.332 4-2.668 9.332-4 14.668-5.332 5.332-1.332 14.668 5.332 16 10.668 0 6.668 1.332 13.332 0 20-5.332 24-12 46.668-17.332 69.332-1.332 6.668-1.332 13.332-1.332 20 0 4 5.332 10.668 9.332 10.668 38.668-5.332 78.668-10.668 117.33-16 17.332-2.668 34.668-5.332 50.668-6.668 45.332-1.332 89.332-6.668 133.33-9.332 20-1.332 41.332-4 61.332-8 37.332-8 74.668-16 110.67-26.668 16-4 33.332-10.668 48-17.332 41.332-18.668 81.332-37.332 121.33-56 18.668-9.332 34.668-21.332 52-33.332 20-13.332 40-26.668 60-41.332 18.676-13.34 40.008-18.672 64.008-17.34zm-836 317.34c1.332 1.332 2.668 1.332 4 2.668 8 17.332 21.332 22.668 41.332 24 52 2.668 104 4 154.67 13.332s102.67 10.668 154.67 10.668c5.332 0 10.668 1.332 16 1.332 76 2.668 152-6.668 225.33-26.668 38.668-10.668 76-24 110.67-42.668 46.668-25.332 94.668-50.668 142.67-72 8-4 13.332-10.668 13.332-20 2.668-21.332-5.332-41.332-5.332-61.332-1.332-32-13.332-60-26.668-88-5.332-12-18.668-14.668-29.332-4-12 10.668-24 20-34.668 30.668-44 38.668-92 72-145.33 98.668-41.332 20-85.332 36-129.33 49.332-26.668 8-53.332 13.332-80 18.668-10.668 2.668-20 2.668-30.668 5.332-54.668 10.668-109.33 17.332-164 17.332-36 0-72 0-108 4-29.332 2.668-58.668 0-88-4-21.332-2.668-36-21.332-36-42.668 0-16 1.332-30.668 1.332-46.668 0-4-4-5.332-8-5.332s-6.668 0-9.332 1.332c-24 13.332-49.332 25.332-72 40-32 20-64 40-100 53.332-2.668 1.332-6.668 2.668-9.332 4-4 1.332-4 10.668-1.332 13.332 6.6602 9.3398 15.996 18.672 26.66 28.004 33.332 29.332 69.332 57.332 98.668 90.668 13.332 14.668 30.668 28 45.332 41.332 9.332 8 21.332 4 22.668-9.332 4-24 9.332-46.668 6.668-72 0-21.332 1.332-28 13.332-53.332z" fill-rule="evenodd"/>
</svg>
